<svg width="242" height="94" viewBox="0 0 242 94" fill="none" xmlns="http://www.w3.org/2000/svg">
<path d="M20.1251 24.5299C24.7074 24.5299 28.7117 25.4381 32.1382 27.2545C35.5646 29.0709 38.2066 31.6304 40.0643 34.933C41.9633 38.1943 42.9128 41.9716 42.9128 46.2649C42.9128 50.517 41.9633 54.2943 40.0643 57.5969C38.2066 60.8995 35.5439 63.459 32.0762 65.2754C28.6498 67.0918 24.6661 68 20.1251 68H3.83924V24.5299H20.1251ZM19.4439 58.8354C23.4483 58.8354 26.5651 57.7414 28.7943 55.5534C31.0236 53.3655 32.1382 50.2693 32.1382 46.2649C32.1382 42.2606 31.0236 39.1438 28.7943 36.9145C26.5651 34.6853 23.4483 33.5707 19.4439 33.5707H14.4281V58.8354H19.4439ZM81.402 50.1661C81.402 51.1569 81.3401 52.1889 81.2162 53.2623H57.2519C57.417 55.4089 58.0982 57.0602 59.2954 58.2161C60.5338 59.3307 62.0406 59.8881 63.8158 59.8881C66.4578 59.8881 68.2949 58.7734 69.327 56.5442H80.597C80.019 58.8147 78.9663 60.8582 77.4389 62.6746C75.9527 64.491 74.0744 65.9153 71.8039 66.9473C69.5334 67.9794 66.9945 68.4954 64.1873 68.4954C60.8022 68.4954 57.7886 67.7729 55.1465 66.3281C52.5045 64.8832 50.4404 62.8191 48.9542 60.1357C47.468 57.4524 46.725 54.315 46.725 50.7234C46.725 47.1319 47.4474 43.9944 48.8923 41.3111C50.3784 38.6277 52.4425 36.5636 55.0846 35.1188C57.7267 33.6739 60.7609 32.9514 64.1873 32.9514C67.5312 32.9514 70.5035 33.6532 73.1043 35.0568C75.705 36.4604 77.7279 38.4626 79.1727 41.0634C80.6589 43.6642 81.402 46.6984 81.402 50.1661ZM70.5654 47.3796C70.5654 45.5631 69.9462 44.1183 68.7077 43.0449C67.4693 41.9716 65.9212 41.4349 64.0635 41.4349C62.2883 41.4349 60.7815 41.951 59.5431 42.983C58.3459 44.0151 57.6028 45.4806 57.3138 47.3796H70.5654ZM102.531 58.0923L110.024 33.4468H121.294L109.033 68H95.967L83.7062 33.4468H95.0382L102.531 58.0923Z" fill="white"/>
<g filter="url(#filter0_d_1_24)">
<path d="M126.602 59.9951H140.473V68.169H116.013V24.6989H126.602V59.9951ZM150.849 30.0242C148.991 30.0242 147.464 29.4876 146.266 28.4142C145.111 27.2996 144.533 25.9373 144.533 24.3273C144.533 22.676 145.111 21.3137 146.266 20.2404C147.464 19.1258 148.991 18.5684 150.849 18.5684C152.665 18.5684 154.151 19.1258 155.307 20.2404C156.504 21.3137 157.103 22.676 157.103 24.3273C157.103 25.9373 156.504 27.2996 155.307 28.4142C154.151 29.4876 152.665 30.0242 150.849 30.0242ZM156.112 33.6158V68.169H145.523V33.6158H156.112ZM184.84 33.2443C188.885 33.2443 192.105 34.5653 194.5 37.2073C196.935 39.8081 198.153 43.3997 198.153 47.982V68.169H187.626V49.4062C187.626 47.0944 187.028 45.2987 185.831 44.0189C184.633 42.7392 183.023 42.0993 181.001 42.0993C178.978 42.0993 177.368 42.7392 176.171 44.0189C174.973 45.2987 174.375 47.0944 174.375 49.4062V68.169H163.786V33.6158H174.375V38.1981C175.448 36.6707 176.893 35.4735 178.709 34.6066C180.526 33.6984 182.569 33.2443 184.84 33.2443ZM226.627 68.169L216.1 53.6789V68.169H205.512V22.3458H216.1V47.6724L226.565 33.6158H239.631L225.265 50.9543L239.755 68.169H226.627Z" fill="url(#paint0_linear_1_24)"/>
</g>
<defs>
<filter id="filter0_d_1_24" x="110.796" y="18.5685" width="130.698" height="56.557" filterUnits="userSpaceOnUse" color-interpolation-filters="sRGB">
<feFlood flood-opacity="0" result="BackgroundImageFix"/>
<feColorMatrix in="SourceAlpha" type="matrix" values="0 0 0 0 0 0 0 0 0 0 0 0 0 0 0 0 0 0 127 0" result="hardAlpha"/>
<feOffset dx="-1.73913" dy="3.47826"/>
<feGaussianBlur stdDeviation="1.73913"/>
<feComposite in2="hardAlpha" operator="out"/>
<feColorMatrix type="matrix" values="0 0 0 0 0 0 0 0 0 0 0 0 0 0 0 0 0 0 0.25 0"/>
<feBlend mode="normal" in2="BackgroundImageFix" result="effect1_dropShadow_1_24"/>
<feBlend mode="normal" in="SourceGraphic" in2="effect1_dropShadow_1_24" result="shape"/>
</filter>
<linearGradient id="paint0_linear_1_24" x1="176.174" y1="0.168976" x2="176.174" y2="93.169" gradientUnits="userSpaceOnUse">
<stop stop-color="#E18700"/>
<stop offset="1" stop-color="#FFD43A"/>
</linearGradient>
</defs>
</svg>
